<svg width="201" height="43" viewBox="0 0 201 43" fill="none" xmlns="http://www.w3.org/2000/svg">
<path d="M56.2723 37.6099H55.1027V32.082H53.0078V31.0054H58.3671V32.082H56.2723V37.6099Z" fill="white"/>
<path d="M67.356 34.8276V37.6099H66.1973V31.0054H67.356V33.751H70.5081V31.0054H71.669V37.6099H70.5081V34.8276H67.356Z" fill="white"/>
<path d="M84.8673 32.0431H81.1316V33.7596H84.4414V34.7995H81.1316V36.5722H84.9149V37.6099H79.9707V31.0054H84.8673V32.0431Z" fill="white"/>
<path fill-rule="evenodd" clip-rule="evenodd" d="M97.1318 37.6099L95.5082 35.3075H94.0555V37.6099H92.8945V31.0054H95.839C97.3567 31.0054 98.2906 31.8074 98.2906 33.1002C98.2906 34.1941 97.6399 34.8557 96.7167 35.1108L98.4981 37.6099H97.1318ZM95.7439 32.0625H94.0555V34.2806H95.7547C96.5849 34.2806 97.1124 33.8461 97.1124 33.1651C97.1124 32.4409 96.6022 32.0625 95.7439 32.0625Z" fill="white"/>
<path fill-rule="evenodd" clip-rule="evenodd" d="M112.641 37.6101H111.415L110.745 36.0146H107.621L106.942 37.6101H105.753L108.659 30.958H109.735L112.641 37.6101ZM109.177 32.3459L108.047 34.9878H110.319L109.177 32.3459Z" fill="white"/>
<path fill-rule="evenodd" clip-rule="evenodd" d="M122.847 35.487H121.537V37.6099H120.376V31.0054H122.981C124.518 31.0054 125.489 31.8744 125.489 33.2235C125.489 34.713 124.3 35.487 122.847 35.487ZM122.886 32.0625H121.537V34.4406H122.886C123.764 34.4406 124.311 33.9585 124.311 33.2516C124.311 32.469 123.753 32.0625 122.886 32.0625Z" fill="white"/>
<path d="M138.18 32.0431H134.442V33.7596H137.754V34.7995H134.442V36.5722H138.225V37.6099H133.283V31.0054H138.18V32.0431Z" fill="white"/>
<path d="M151.754 34.7519C151.754 36.7236 150.64 37.7137 148.915 37.7137C147.196 37.7137 146.103 36.7236 146.103 34.8081V31.0054H147.263V34.7606C147.263 35.9864 147.895 36.6479 148.932 36.6479C149.961 36.6479 150.593 36.0253 150.593 34.8081V31.0054H151.754V34.7519Z" fill="white"/>
<path d="M162.745 37.6099H161.575V32.082H159.48V31.0054H164.84V32.082H162.745V37.6099Z" fill="white"/>
<path d="M173.896 31.0054V37.6099H172.735V31.0054H173.896Z" fill="white"/>
<path d="M185.33 37.7224C183.406 37.7224 181.971 36.2221 181.971 34.3175C181.971 32.4302 183.378 30.8931 185.378 30.8931C186.595 30.8931 187.33 31.3168 187.963 31.9221L187.218 32.7804C186.688 32.2896 186.124 31.9589 185.367 31.9589C184.104 31.9589 183.188 32.9966 183.188 34.298C183.188 35.5995 184.104 36.6566 185.367 36.6566C186.18 36.6566 186.699 36.3259 187.265 35.7984L188.009 36.5529C187.321 37.2706 186.567 37.7224 185.33 37.7224Z" fill="white"/>
<path d="M198.377 33.7793C199.773 34.1187 200.5 34.6202 200.5 35.7228C200.5 36.968 199.527 37.7052 198.141 37.7052C197.131 37.7052 196.178 37.355 195.387 36.6481L196.083 35.8179C196.716 36.3649 197.348 36.6762 198.169 36.6762C198.887 36.6762 199.339 36.3454 199.339 35.8352C199.339 35.3553 199.075 35.1002 197.849 34.817C196.442 34.4775 195.65 34.0625 195.65 32.8367C195.65 31.6844 196.593 30.9126 197.905 30.9126C198.867 30.9126 199.63 31.2045 200.301 31.7406L199.678 32.6183C199.084 32.1751 198.489 31.9395 197.886 31.9395C197.207 31.9395 196.811 32.2897 196.811 32.7329C196.811 33.2518 197.112 33.4766 198.377 33.7793Z" fill="white"/>
<path d="M54.3118 19.0656C53.901 18.3716 53.5811 17.6171 53.3541 16.7999C53.1271 15.9827 53.0146 15.1093 53.0146 14.1732C53.0146 13.2393 53.1336 12.3464 53.3735 11.4968C53.6135 10.645 53.9572 9.85812 54.4026 9.13821C54.8479 8.4183 55.3798 7.76974 56.0002 7.19467C56.6207 6.61745 57.3103 6.12887 58.0691 5.72676C59.6581 4.89011 61.392 4.4707 63.2685 4.4707C66.027 4.4707 68.31 5.23817 70.1173 6.77527L68.7553 8.63449C67.2269 7.30709 65.3201 6.6434 63.0328 6.6434C60.9639 6.6434 59.2085 7.32439 57.7686 8.68638C56.3094 10.057 55.5808 11.7649 55.5808 13.8079C55.5808 16.0325 56.3007 17.8506 57.7427 19.2558C59.1739 20.661 61.0028 21.3637 63.2296 21.3637C64.9137 21.3637 66.4205 20.8707 67.7457 19.8828C68.1219 19.6039 68.4397 19.312 68.7035 19.005V17.0031H62.2718V14.8023H71.1248V23.2748H68.7035V21.4804C67.7068 22.3797 66.3751 23.0045 64.7083 23.3548C64.0965 23.4758 63.3852 23.5364 62.5745 23.5364C61.7616 23.5364 60.938 23.4347 60.0992 23.2294C59.2603 23.024 58.4842 22.7278 57.7686 22.3387C57.0531 21.9517 56.4002 21.4804 55.81 20.9313C55.2219 20.3822 54.7204 19.7595 54.3118 19.0656Z" fill="white"/>
<path fill-rule="evenodd" clip-rule="evenodd" d="M81.8605 4.73242H83.2355L91.2625 23.2749H88.6186L86.8631 19.217H77.5779L75.6797 23.2749H73.1914L81.8605 4.73242ZM85.9205 17.0162L84.2451 13.127C84.0354 12.6384 83.83 12.1304 83.629 11.6072L83.1058 10.1285C82.7728 9.16861 82.5761 8.51356 82.5156 8.16333H82.3578C82.2886 8.51356 82.1308 9.01079 81.8865 9.65503L81.2185 11.3586C81.0174 11.8472 80.7991 12.3444 80.5634 12.8525L78.6134 17.0162H85.9205Z" fill="white"/>
<path d="M93.3291 4.73242H95.4521L107.394 19.3727V4.73242H109.554V23.2749H107.524L95.491 8.53085V23.2749H93.3291V4.73242Z" fill="white"/>
<path fill-rule="evenodd" clip-rule="evenodd" d="M113.703 4.73242H121.313C124.149 4.73242 126.432 5.528 128.162 7.11482C129.952 8.75785 130.847 10.9522 130.847 13.7021C130.847 16.6098 129.93 18.936 128.097 20.6828C126.29 22.4101 123.905 23.2749 120.945 23.2749H113.703V4.73242ZM121.274 21.0763C123.447 21.0763 125.163 20.4212 126.419 19.1111C127.66 17.8183 128.279 16.0693 128.279 13.8599C128.279 11.7304 127.593 10.0355 126.223 8.77947C124.887 7.54719 123.125 6.93322 120.932 6.93322H116.127V21.0763H121.274Z" fill="white"/>
<path d="M133.985 4.73242H147.828V6.93322H136.409V11.9358H146.583V14.1344H136.409V21.0763H148.089V23.2749H133.985V4.73242Z" fill="white"/>
<path d="M151.257 4.73242H165.097V6.93322H153.678V11.9358H163.854V14.1344H153.678V21.0763H165.361V23.2749H151.257V4.73242Z" fill="white"/>
<path d="M166.444 4.73242H169.155L173.974 15.3797C174.193 15.8683 174.394 16.3525 174.577 16.8325C174.997 17.9069 175.319 18.7847 175.546 19.4657H175.665C175.786 19.0722 175.922 18.6744 176.069 18.2723L176.54 16.9903C176.724 16.519 176.929 16.0391 177.156 15.5483L182.055 4.73242H184.621L176.11 23.5365H174.956L166.444 4.73242Z" fill="white"/>
<path fill-rule="evenodd" clip-rule="evenodd" d="M190.921 4.73242H192.296L200.323 23.2749H197.677L195.922 19.217H186.639L184.738 23.2749H182.25L190.921 4.73242ZM194.979 17.0162L193.304 13.127C193.094 12.6384 192.889 12.1304 192.688 11.6072L192.164 10.1285C191.831 9.16861 191.637 8.51356 191.574 8.16333H191.419C191.347 8.51356 191.192 9.01079 190.947 9.65503L190.279 11.3586C190.078 11.8472 189.86 12.3444 189.624 12.8525L187.672 17.0162H194.979Z" fill="white"/>
<path d="M22.9386 0L13.5518 30.8566L22.943 34.3502L32.332 30.8566L22.9386 0Z" fill="#5F2F84"/>
<path d="M22.9382 0L0.5 42.695L20.6466 35.2019L13.5513 30.8565L22.9382 0Z" fill="#3AB5E6"/>
<path d="M45.3831 42.695L22.9385 0L32.3319 30.8565L25.2366 35.2019L45.3831 42.695Z" fill="#FE3A83"/>
</svg>
